<svg width="34" height="34" viewBox="0 0 34 34" fill="none" xmlns="http://www.w3.org/2000/svg">
<path d="M17.0013 32.5833C8.39511 32.5833 1.41797 25.6062 1.41797 17C1.41797 8.39376 8.39511 1.41663 17.0013 1.41663C25.6075 1.41663 32.5846 8.39376 32.5846 17C32.5846 25.6062 25.6075 32.5833 17.0013 32.5833Z" fill="#FAD207"/>
<path d="M3.8154 17C3.8154 8.79713 10.1542 2.07952 18.2 1.46697C17.8038 1.437 17.4053 1.41663 17.0013 1.41663C8.39511 1.41663 1.41797 8.39376 1.41797 17C1.41797 25.6062 8.39511 32.5833 17.0013 32.5833C17.4053 32.5833 17.8038 32.5629 18.2 32.5329C10.1542 31.9204 3.8154 25.2028 3.8154 17Z" fill="#FA8C16"/>
<path d="M17 8C21.9707 8 26 12.0293 26 17C26 21.9707 21.9707 26 17 26C12.0293 26 8 21.9707 8 17H9.8C9.8 20.9762 13.0238 24.2 17 24.2C20.9762 24.2 24.2 20.9762 24.2 17C24.2 13.0238 20.9762 9.8 17 9.8C14.525 9.8 12.3416 11.0483 11.0465 12.95H13.4V14.75H8V9.35H9.8V11.6C11.4416 9.413 14.0561 8 17 8ZM17.9 12.5V16.6265L20.8187 19.5452L19.5452 20.8187L16.1 17.3717V12.5H17.9Z" fill="white"/>
</svg>
